<?xml version="1.0" encoding="UTF-8" standalone="no"?>
<!-- Generator: Adobe Illustrator 18.1.1, SVG Export Plug-In . SVG Version: 6.00 Build 0)  -->

<svg
   xmlns:dc="http://purl.org/dc/elements/1.1/"
   xmlns:cc="http://creativecommons.org/ns#"
   xmlns:rdf="http://www.w3.org/1999/02/22-rdf-syntax-ns#"
   xmlns:svg="http://www.w3.org/2000/svg"
   xmlns="http://www.w3.org/2000/svg"
   xmlns:sodipodi="http://sodipodi.sourceforge.net/DTD/sodipodi-0.dtd"
   xmlns:inkscape="http://www.inkscape.org/namespaces/inkscape"
   version="1.1"
   id="Capa_1"
   x="0px"
   y="0px"
   viewBox="0 0 17.802 17.802"
   style="enable-background:new 0 0 17.802 17.802;"
   xml:space="preserve"
   width="512px"
   height="512px"
   sodipodi:docname="go_last.svg"
   inkscape:version="0.92.2 2405546, 2018-03-11"><metadata
   id="metadata45"><rdf:RDF><cc:Work
       rdf:about=""><dc:format>image/svg+xml</dc:format><dc:type
         rdf:resource="http://purl.org/dc/dcmitype/StillImage" /><dc:title></dc:title></cc:Work></rdf:RDF></metadata><defs
   id="defs43" /><sodipodi:namedview
   pagecolor="#ffffff"
   bordercolor="#666666"
   borderopacity="1"
   objecttolerance="10"
   gridtolerance="10"
   guidetolerance="10"
   inkscape:pageopacity="0"
   inkscape:pageshadow="2"
   inkscape:window-width="1920"
   inkscape:window-height="1021"
   id="namedview41"
   showgrid="false"
   inkscape:zoom="0.4609375"
   inkscape:cx="-26.033898"
   inkscape:cy="256"
   inkscape:window-x="0"
   inkscape:window-y="0"
   inkscape:window-maximized="1"
   inkscape:current-layer="Capa_1" />
<g
   id="g8"
   transform="rotate(-180,8.9015,8.900907)">
	<g
   id="c92_stop">
		<path
   d="M 15.363,0.042 C 15.224,-0.028 15.06,-0.009 14.939,0.085 L 4.163,8.587 C 4.069,8.664 4.01,8.78 4.01,8.9 c 0,0.119 0.059,0.24 0.153,0.314 l 10.776,8.502 c 0.071,0.057 0.162,0.086 0.249,0.086 l 0.175,-0.039 c 0.139,-0.064 0.225,-0.207 0.225,-0.361 V 0.403 c 0,-0.154 -0.086,-0.296 -0.225,-0.361 z"
   id="path2"
   inkscape:connector-curvature="0"
   style="fill:#ffffff" />
		<path
   d="M 5.188,0.033 H 2.53 c -0.172,0 -0.315,0.182 -0.315,0.401 V 17.37 c 0,0.221 0.143,0.403 0.315,0.403 h 2.657 c 0.174,0 0.315,-0.183 0.315,-0.403 V 0.434 C 5.503,0.215 5.361,0.033 5.188,0.033 Z"
   id="path4"
   inkscape:connector-curvature="0"
   style="fill:#ffffff" />
	</g>
	<g
   id="Capa_1_264_">
	</g>
</g>
<g
   id="g10">
</g>
<g
   id="g12">
</g>
<g
   id="g14">
</g>
<g
   id="g16">
</g>
<g
   id="g18">
</g>
<g
   id="g20">
</g>
<g
   id="g22">
</g>
<g
   id="g24">
</g>
<g
   id="g26">
</g>
<g
   id="g28">
</g>
<g
   id="g30">
</g>
<g
   id="g32">
</g>
<g
   id="g34">
</g>
<g
   id="g36">
</g>
<g
   id="g38">
</g>
</svg>